<svg width="185" height="185" xmlns="http://www.w3.org/2000/svg" xmlns:xlink="http://www.w3.org/1999/xlink" xml:space="preserve" overflow="hidden"><g transform="translate(-1073 -468)"><g><g><g><g><path d="M1223.5 566.75C1218.13 566.75 1213.92 563.683 1213.92 560.042 1213.92 556.4 1218.13 553.333 1223.5 553.333 1228.87 553.333 1233.08 556.4 1233.08 560.042 1233.08 563.683 1228.87 566.75 1223.5 566.75ZM1213.92 587.833C1208.55 587.833 1204.33 584.767 1204.33 581.125 1204.33 577.483 1208.55 574.417 1213.92 574.417 1219.28 574.417 1223.5 577.483 1223.5 581.125 1223.5 584.767 1219.28 587.833 1213.92 587.833ZM1192.83 534.167C1187.47 534.167 1183.25 531.1 1183.25 527.458 1183.25 523.817 1187.47 520.75 1192.83 520.75 1198.2 520.75 1202.42 523.817 1202.42 527.458 1202.42 531.1 1198.2 534.167 1192.83 534.167ZM1192.83 599.333C1187.47 599.333 1183.25 596.267 1183.25 592.625 1183.25 588.983 1187.47 585.917 1192.83 585.917 1198.2 585.917 1202.42 588.983 1202.42 592.625 1202.42 596.267 1198.2 599.333 1192.83 599.333ZM1166 605.083C1160.63 605.083 1156.42 602.017 1156.42 598.375 1156.42 594.733 1160.63 591.667 1166 591.667 1171.37 591.667 1175.58 594.733 1175.58 598.375 1175.58 602.017 1171.37 605.083 1166 605.083ZM1155.65 527.65C1158.72 524.583 1162.74 524.008 1164.85 526.117 1166.96 528.225 1166.19 532.25 1163.32 535.317 1160.25 538.383 1156.22 538.958 1154.12 536.85 1151.82 534.742 1152.58 530.525 1155.65 527.65ZM1139.17 601.25C1133.8 601.25 1129.58 598.183 1129.58 594.542 1129.58 590.9 1133.8 587.833 1139.17 587.833 1144.53 587.833 1148.75 590.9 1148.75 594.542 1148.75 598.183 1144.53 601.25 1139.17 601.25ZM1213.92 534.167C1219.28 534.167 1223.5 537.233 1223.5 540.875 1223.5 544.517 1219.28 547.583 1213.92 547.583 1208.55 547.583 1204.33 544.517 1204.33 540.875 1204.33 537.233 1208.55 534.167 1213.92 534.167ZM1166 507.333C1122.49 507.333 1129.39 524.392 1133.42 528.417L1143 538C1149.13 544.325 1141.66 551.417 1134.57 548.35L1110.61 538C1093.74 530.717 1089.33 551.225 1089.33 561 1089.33 590.708 1123.64 614.667 1166 614.667 1208.36 614.667 1242.67 590.708 1242.67 561 1242.67 531.292 1208.36 507.333 1166 507.333Z" fill="#4472C4" fill-rule="nonzero" fill-opacity="1"/></g></g></g></g></g></svg>