<svg width="174" height="174" xmlns="http://www.w3.org/2000/svg" xmlns:xlink="http://www.w3.org/1999/xlink" xml:space="preserve" overflow="hidden"><g transform="translate(-698 -470)"><g><g><g><g><path d="M846.771 539.479 810.729 539.479 810.729 517.854 846.771 517.854 846.771 539.479ZM846.771 568.312 810.729 568.312 810.729 546.688 846.771 546.688 846.771 568.312ZM846.771 597.146 810.729 597.146 810.729 575.521 846.771 575.521 846.771 597.146ZM767.479 597.146 767.479 575.521 803.521 575.521 803.521 597.146 767.479 597.146ZM724.229 597.146 724.229 575.521 760.271 575.521 760.271 597.146 724.229 597.146ZM724.229 546.688 760.271 546.688 760.271 568.312 724.229 568.312 724.229 546.688ZM724.229 517.854 760.271 517.854 760.271 539.479 724.229 539.479 724.229 517.854ZM803.521 546.688 803.521 568.312 767.479 568.312 767.479 546.688 803.521 546.688ZM803.521 517.854 803.521 539.479 767.479 539.479 767.479 517.854 803.521 517.854ZM713.417 507.042 713.417 607.958 857.583 607.958 857.583 507.042 713.417 507.042Z" fill="#4472C4" fill-rule="nonzero" fill-opacity="1"/></g></g></g></g></g></svg>