<svg width="148" height="148" xmlns="http://www.w3.org/2000/svg" xmlns:xlink="http://www.w3.org/1999/xlink" xml:space="preserve" overflow="hidden"><g transform="translate(-920 12)"><g><g><g><g><path d="M1019.31 92.2063C1019 105.988 1007.52 116.706 993.888 116.4 981.178 116.094 970.766 106.294 969.694 93.7375L969.541 90.8281C969.694 82.1 962.803 74.9031 954.075 74.75 953.922 74.75 953.922 74.75 953.769 74.75 949.481 74.75 945.347 76.4344 942.284 79.4969 936.772 78.425 931.259 81.9469 930.188 87.6125 930.188 87.9187 930.034 88.225 930.034 88.5312L930.034 91.5938 930.034 131.406 1058.66 131.406 1058.66 90.0625 1058.66 88.5312C1058.35 82.2531 1052.84 77.5062 1046.56 77.8125 1046.1 77.8125 1045.64 77.9656 1045.34 77.9656 1042.43 74.9031 1038.45 73.2188 1034.31 73.2188 1026.04 73.2188 1019.31 79.9563 1019.46 88.225 1019.46 88.3781 1019.46 88.3781 1019.46 88.5312L1019.31 92.2063Z" fill="#4472C4" fill-rule="nonzero" fill-opacity="1"/><path d="M1017.78 13.6531 1011.8 11.3563 1002.16 35.8563 999.4 62.3469 1005.37 63.2656C1006.9 63.5719 1008.28 62.5 1008.59 60.9688 1008.59 60.8156 1008.59 60.8156 1008.59 60.6625 1009.66 41.9812 1016.24 24.2188 1019.15 17.175 1019.92 15.95 1019.31 14.2656 1017.78 13.6531 1017.78 13.6531 1017.78 13.6531 1017.78 13.6531Z" fill="#4472C4" fill-rule="nonzero" fill-opacity="1"/><path d="M976.584 21.7687C974.594 21.0031 972.45 22.075 971.684 23.9125 970.919 25.9031 971.991 28.0469 973.828 28.8125 975.819 29.5781 977.963 28.6594 978.728 26.6688 979.647 24.8312 978.575 22.5344 976.584 21.7687 976.584 21.7687 976.584 21.7687 976.584 21.7687Z" fill="#4472C4" fill-rule="nonzero" fill-opacity="1"/><path d="M963.569-7.63125C962.191-8.24375 960.506-7.47813 959.894-6.1 959.894-6.1 959.894-6.1 959.894-6.1L942.744 38C942.131 39.3781 942.897 41.0625 944.275 41.5219 944.275 41.5219 944.275 41.5219 944.275 41.5219L988.987 59.1312 1008.28 9.97812 963.569-7.63125ZM982.709 32.3344C981.484 31.7219 980.106 30.9562 979.034 30.0375 979.647 31.2625 980.259 32.6406 980.566 34.0187 980.719 35.0906 980.412 36.0094 979.8 36.775 979.188 37.5406 978.269 38.1531 977.35 38.3063 975.206 38.6125 973.369 37.0812 972.909 35.0906 972.756 33.8656 972.756 32.6406 972.909 31.4156 972.144 32.3344 971.225 33.2531 970.306 34.1719 968.622 35.3969 966.172 35.2438 964.794 33.5594 964.181 32.7938 963.875 31.7219 964.028 30.8031 964.028 30.4969 964.181 30.1906 964.334 29.7313 964.641 29.1188 964.947 28.6594 965.559 28.2 966.784 27.4344 968.009 26.8219 969.388 26.2094 968.009 26.0563 966.478 25.9031 965.1 25.4437 963.109 24.6781 962.191 22.3812 963.109 20.5438 963.875 18.7062 966.019 17.7875 967.856 18.4 969.234 19.0125 970.306 19.7781 971.531 20.6969 970.919 19.4719 970.306 18.0938 970 16.7156 969.847 16.1031 970 15.3375 970.153 14.725 970.306 14.4188 970.459 14.1125 970.612 13.8063 971.225 13.0406 972.144 12.4281 973.216 12.275 975.359 11.9688 977.197 13.5 977.656 15.4906 977.809 16.7156 977.809 17.9406 977.656 19.1656 978.422 18.2469 979.341 17.3281 980.259 16.4094 981.944 15.1844 984.394 15.3375 985.619 17.0219 986.231 17.7875 986.537 18.8594 986.384 19.7781 986.231 20.85 985.772 21.7687 985.006 22.3812 983.781 23.1469 982.556 23.7594 981.178 24.3719 982.556 24.525 984.088 24.6781 985.466 25.1375 987.303 25.9031 988.222 28.0469 987.609 29.8844 986.844 32.0281 984.7 33.1 982.709 32.3344Z" fill="#4472C4" fill-rule="nonzero" fill-opacity="1"/><path d="M984.049 84.8399C985.916 87.6611 986.285 90.7047 984.875 91.638 983.464 92.5713 980.807 91.0408 978.941 88.2196 977.074 85.3984 976.705 82.3548 978.115 81.4215 979.526 80.4882 982.183 82.0187 984.049 84.8399Z" fill="#4472C4" fill-rule="nonzero" fill-opacity="1"/><path d="M1003.31 94.64C1004.28 96.0214 1002.83 98.7235 1000.07 100.675 997.308 102.627 994.277 103.09 993.301 101.708 992.325 100.327 993.774 97.6249 996.536 95.673 999.299 93.7212 1002.33 93.2587 1003.31 94.64Z" fill="#4472C4" fill-rule="nonzero" fill-opacity="1"/><path d="M997.006 67.273C998.472 68.1169 998.292 71.1773 996.604 74.1088 994.917 77.0403 992.36 78.7327 990.895 77.8889 989.429 77.0451 989.609 73.9846 991.296 71.0531 992.984 68.1216 995.54 66.4292 997.006 67.273Z" fill="#4472C4" fill-rule="nonzero" fill-opacity="1"/></g></g></g></g></g></svg>