<svg width="185" height="185" xmlns="http://www.w3.org/2000/svg" xmlns:xlink="http://www.w3.org/1999/xlink" xml:space="preserve" overflow="hidden"><g transform="translate(-520 -464)"><g><g><g><g><path d="M540.167 604.917 685.833 604.917 685.833 507.167 540.167 507.167ZM544 601.083 544 574.25 588.083 574.25 588.083 601.083ZM634.083 543.583 634.083 570.417 591.917 570.417 591.917 543.583ZM591.917 539.75 591.917 511 634.083 511 634.083 539.75ZM637.917 543.583 682 543.583 682 570.417 637.917 570.417ZM588.083 570.417 544 570.417 544 543.583 588.083 543.583ZM591.917 601.083 591.917 574.25 634.083 574.25 634.083 601.083ZM637.917 601.083 637.917 574.25 682 574.25 682 601.083ZM682 539.75 637.917 539.75 637.917 511 682 511ZM588.083 511 588.083 539.75 544 539.75 544 511Z" fill="#A5A5A5" fill-rule="nonzero" fill-opacity="1"/></g></g></g></g></g></svg>