<svg width="154" height="156" xmlns="http://www.w3.org/2000/svg" xmlns:xlink="http://www.w3.org/1999/xlink" xml:space="preserve" overflow="hidden"><g transform="translate(-644 -316)"><g><g><g><g><path d="M721 413.25C710.412 413.25 701.75 404.587 701.75 394 701.75 383.413 710.412 374.75 721 374.75 731.588 374.75 740.25 383.413 740.25 394 740.25 404.587 731.588 413.25 721 413.25ZM764.312 381.969C763.35 378.44 761.906 375.071 760.142 372.023L764.152 359.992 755.008 350.848 742.977 354.858C739.769 353.094 736.4 351.65 732.871 350.688L727.417 339.458 714.583 339.458 708.969 350.688C705.44 351.65 702.071 353.094 699.023 354.858L686.992 350.848 677.848 359.992 681.858 372.023C680.094 375.231 678.65 378.6 677.688 382.129L666.458 387.583 666.458 400.417 677.688 406.031C678.65 409.56 680.094 412.929 681.858 415.977L677.848 428.008 686.992 437.152 699.023 433.142C702.231 434.906 705.6 436.35 709.129 437.312L714.744 448.542 727.577 448.542 733.192 437.312C736.721 436.35 740.09 434.906 743.138 433.142L755.169 437.152 764.312 428.008 760.302 415.977C762.067 412.769 763.51 409.4 764.473 405.871L775.702 400.256 775.702 387.423 764.312 381.969Z" fill="#4472C4" fill-rule="nonzero" fill-opacity="1"/></g></g></g></g></g></svg>