<svg width="125" height="125" xmlns="http://www.w3.org/2000/svg" xmlns:xlink="http://www.w3.org/1999/xlink" xml:space="preserve" overflow="hidden"><g transform="translate(-920 -501)"><g><g><g><g><path d="M1029.11 521.504C1028.08 522.537 1026.53 522.537 1025.62 521.504 1024.59 520.471 1024.59 518.921 1025.62 518.017 1026.66 517.112 1028.21 516.983 1029.11 518.017 1030.02 519.05 1030.02 520.6 1029.11 521.504ZM1032.6 514.529C1030.28 512.204 1026.92 511.688 1024.07 513.108 1022.53 513.754 1017.23 519.438 1017.23 519.438 1009.35 527.317 998.888 540.233 995.013 547.725L977.833 530.675C976.8 529.642 975.25 529.642 974.217 530.675L969.05 535.842 1011.29 578.079 1016.45 572.912C1017.49 571.879 1017.49 570.329 1016.45 569.296L999.404 552.117C1007.03 548.112 1019.81 537.779 1027.69 529.9 1027.69 529.9 1033.38 524.475 1034.02 523.054 1035.44 520.213 1034.93 516.854 1032.6 514.529Z" fill="#4472C4" fill-rule="nonzero" fill-opacity="1"/><path d="M932.108 572.783C931.075 573.817 931.075 575.367 932.108 576.4L963.754 608.046 986.617 585.183 988.425 586.992 967.242 611.533 970.729 615.021C971.763 616.054 973.312 616.054 974.346 615.021L1007.28 582.083 965.046 539.846 932.108 572.783Z" fill="#4472C4" fill-rule="nonzero" fill-opacity="1"/></g></g></g></g></g></svg>