<svg width="192" height="191" xmlns="http://www.w3.org/2000/svg" xmlns:xlink="http://www.w3.org/1999/xlink" xml:space="preserve" overflow="hidden"><g transform="translate(-296 -458)"><g><g><g><g><path d="M94.8179 160.417C64.2034 160.426 39.3783 135.615 39.3696 105.001 39.3609 74.3862 64.1717 49.5611 94.7862 49.5524 125.401 49.5437 150.226 74.3545 150.235 104.969 150.235 104.974 150.235 104.98 150.235 104.985 150.289 135.545 125.56 160.363 95.0002 160.417 94.9394 160.417 94.8787 160.417 94.8179 160.417ZM141.724 56.6794 147.662 50.7419C149.88 48.3833 149.792 44.6797 147.464 42.4294 145.172 40.1965 141.546 40.11 139.151 42.2315L132.422 49.1585C123.007 42.7797 112.094 38.9601 100.755 38.0752L100.755 29.7627 118.568 29.7627 118.568 17.8877 71.0679 17.8877 71.0679 29.7627 88.8804 29.7627 88.8804 37.8773C51.7548 41.1075 24.2773 73.8225 27.5076 110.948 30.7378 148.074 63.4529 175.551 100.578 172.321 137.704 169.09 165.181 136.376 161.951 99.2501 160.545 83.0898 153.364 67.9771 141.724 56.6794Z" fill="#4472C4" fill-rule="nonzero" fill-opacity="1" transform="matrix(1.00526 0 0 1 297 459)"/><path d="M128.387 138.528C146.928 119.97 146.915 89.8943 128.357 71.3527 119.457 62.4611 107.394 57.4631 94.8139 57.4552L94.8139 104.955Z" fill="#4472C4" fill-rule="nonzero" fill-opacity="1" transform="matrix(1.00526 0 0 1 297 459)"/></g></g></g></g></g></svg>